<?xml version="1.0" encoding="iso-8859-1"?>
<!-- Generator: Adobe Illustrator 19.0.0, SVG Export Plug-In . SVG Version: 6.00 Build 0)  -->
<svg version="1.1" id="Capa_1" xmlns="http://www.w3.org/2000/svg" xmlns:xlink="http://www.w3.org/1999/xlink" x="0px" y="0px"
	 viewBox="0 0 512.002 512.002" style="enable-background:new 0 0 512.002 512.002;" xml:space="preserve">
<g>
	<g>
		<path d="M203.545,98.622c-3.201-4.497-9.446-5.548-13.947-2.345c-17.203,12.251-30.73,28.907-39.119,48.169
			c-2.205,5.064,0.111,10.956,5.175,13.161c1.301,0.566,2.655,0.834,3.988,0.834c3.858,0,7.534-2.246,9.173-6.01
			c6.939-15.934,18.138-29.718,32.385-39.863C205.699,109.364,206.749,103.12,203.545,98.622z"/>
	</g>
</g>
<g>
	<g>
		<path d="M231.307,87.522c-1.787-5.226-7.472-8.019-12.696-6.232l-0.223,0.078c-5.2,1.839-7.895,7.529-6.064,12.732
			c1.444,4.11,5.324,6.675,9.457,6.675c1.098,0,2.213-0.181,3.306-0.563C230.307,98.423,233.091,92.744,231.307,87.522z"/>
	</g>
</g>
<g>
	<g>
		<path d="M409.075,306.15H406V190c0-72.439-51.616-133.047-120-146.984V30c0-16.542-13.458-30-30-30s-29.999,13.458-29.999,30
			v13.016C157.616,56.951,106,117.56,106,189.999v116.15h-3.075c-20.36,0-36.924,16.564-36.924,36.925V370c0,5.523,4.478,10,10,10
			H192.94c4.814,30.473,31.257,53.85,63.062,53.85s58.246-23.377,63.06-53.85h116.94c5.522,0,10-4.477,10-10v-26.925
			C446.001,322.714,429.436,306.15,409.075,306.15z M246.001,30c0-5.514,4.486-10,10-10c5.514,0,9.999,4.486,9.999,10v10.338
			c-0.076-0.005-0.152-0.007-0.228-0.012c-1.396-0.09-2.795-0.161-4.2-0.212c-0.308-0.012-0.615-0.026-0.923-0.035
			C259.104,40.031,257.555,40,256,40c-1.556,0-3.105,0.032-4.649,0.079c-0.307,0.009-0.613,0.023-0.921,0.035
			c-1.407,0.052-2.809,0.123-4.205,0.213c-0.076,0.005-0.15,0.006-0.224,0.011V30z M126,189.999
			c0-65.306,48.407-119.511,111.224-128.639c0.07-0.008,0.14-0.009,0.209-0.019c4.567-0.661,9.161-1.074,13.762-1.244
			c0.09-0.003,0.182-0.007,0.272-0.011c3.022-0.105,6.048-0.105,9.07,0c0.088,0.003,0.176,0.006,0.264,0.01
			c4.602,0.17,9.197,0.583,13.768,1.245c0.052,0.008,0.104,0.004,0.155,0.011C337.565,70.457,386,124.675,386,189.999v116.15H126
			V189.999z M256.001,413.849c-20.74,0-38.164-14.472-42.7-33.85H298.7C294.164,399.377,276.741,413.849,256.001,413.849z
			 M426.001,360h-340v-16.925c0-9.333,7.592-16.925,16.924-16.925h306.15c9.333,0,16.926,7.592,16.926,16.925V360z"/>
	</g>
</g>
<g>
	<g>
		<path d="M256,454.151c-5.522,0-10,4.477-10,10v37.851c0,5.523,4.478,10,10,10c5.522,0,10-4.477,10-10v-37.851
			C266,458.628,261.522,454.151,256,454.151z"/>
	</g>
</g>
<g>
	<g>
		<path d="M356.41,456.268l-26.764-26.765c-3.906-3.905-10.236-3.905-14.143,0c-3.905,3.905-3.905,10.237,0,14.143l26.765,26.765
			c1.953,1.953,4.512,2.929,7.071,2.929c2.559,0,5.118-0.976,7.071-2.929C360.315,466.506,360.315,460.174,356.41,456.268z"/>
	</g>
</g>
<g>
	<g>
		<path d="M196.495,429.503c-3.905-3.905-10.237-3.905-14.142,0l-26.764,26.765c-3.905,3.905-3.905,10.237,0,14.142
			c1.953,1.953,4.512,2.929,7.071,2.929c2.559,0,5.119-0.977,7.071-2.929l26.764-26.765C200.4,439.74,200.4,433.408,196.495,429.503
			z"/>
	</g>
</g>
<g>
</g>
<g>
</g>
<g>
</g>
<g>
</g>
<g>
</g>
<g>
</g>
<g>
</g>
<g>
</g>
<g>
</g>
<g>
</g>
<g>
</g>
<g>
</g>
<g>
</g>
<g>
</g>
<g>
</g>
</svg>
