<?xml version="1.0"?>
<svg xmlns="http://www.w3.org/2000/svg" id="Solid" viewBox="0 0 512 512" width="512" height="512"><path d="M328,320a8,8,0,0,1-4.438-1.344L301.578,304H280a8,8,0,0,1-4.438-1.344l-20.137-13.425-26.686,13.344L214.217,317.1l-12.6,18.9,12.6,18.9,29.1,29.1H256a8,8,0,0,1,7.92,6.869L270.938,440h14.4L315.2,417.6q.177-.134.362-.256L336,403.719V384a8,8,0,0,1,3.562-6.656L361.8,362.522l12.974-25.947L363.719,320Z"/><path d="M87.761,153.94,80,184.985v36.8l22.054,36.756L130.667,280H152a8,8,0,0,1,5.657,2.343l11.363,11.363,7.072-4.716-3.67-1.835a8,8,0,0,1-3.577-3.577l-6.808-13.615L150.111,264H136a8,8,0,0,1-7.59-5.47l-8-24a8,8,0,0,1,5.06-10.119l24-8A8,8,0,0,1,152,216h24a8,8,0,0,1,7.155,4.422l4.9,9.794,10.389-3.463-6.2-24.813A7.977,7.977,0,0,1,192,200V184a8,8,0,0,1,1.344-4.438l16-24a7.991,7.991,0,0,1,4.126-3.151l16.972-5.658-5.453-21.812L205.578,112H192v6.111l7.155,14.311a8,8,0,0,1-4.625,11.167l-24,8a8,8,0,0,1-9.186-3.151l-16-24A8,8,0,0,1,144,120V96a8,8,0,0,1,3.562-6.656l24-16a7.965,7.965,0,0,1,1.908-.933l24-8a8,8,0,0,1,6.646.729L242.216,88h8.84l4-8L231.711,33.309a222.3,222.3,0,0,0-134.1,64.3A226.723,226.723,0,0,0,72.882,126.9l13.774,20.662A8,8,0,0,1,87.761,153.94Z"/><path d="M449.14,308.116l-24-40a8,8,0,0,1-.985-5.685l6.38-31.9-39.85-6.642a8,8,0,0,1-6.446-5.951l-8-32A7.977,7.977,0,0,1,376,184V140.944l-11.578-5.789a8,8,0,0,1-4.012-4.625l-7.4-22.209L341.839,97.153l-19.309,6.436a7.994,7.994,0,0,1-9.685-4.011l-8-16A7.994,7.994,0,0,1,304,80V69.766l-18.53-6.177a8,8,0,0,1-5.232-5.65l-6.3-25.224Q265.032,32.013,256,32c-2.338,0-4.669.048-7,.119l22.151,44.3a8,8,0,0,1,0,7.156l-8,16A8,8,0,0,1,256,104H240a8,8,0,0,1-4.116-1.14L199.039,80.753l-19.493,6.5L160,100.281v17.3l11.267,16.9,9.453-3.151-3.875-7.75A7.994,7.994,0,0,1,176,120V104a8,8,0,0,1,8-8h24a8,8,0,0,1,4.438,1.344l24,16a8,8,0,0,1,3.323,4.716l8,32a8,8,0,0,1-5.231,9.529l-21.4,7.133L208,186.422v12.593l7.761,31.045a8,8,0,0,1-5.231,9.529l-24,8a8,8,0,0,1-9.685-4.011L171.056,232H153.3l-15.179,5.06L141.766,248H152a7.994,7.994,0,0,1,3.578.845l16,8a8,8,0,0,1,3.577,3.577l6.808,13.615,13.615,6.808a8,8,0,0,1,.86,13.811l-24,16a8,8,0,0,1-10.095-1L148.687,296H128a8.006,8.006,0,0,1-4.8-1.6l-32-24a8.013,8.013,0,0,1-2.06-2.284l-24-40A8.009,8.009,0,0,1,64,224V184a7.977,7.977,0,0,1,.239-1.94l7.142-28.567-8-12a224.046,224.046,0,0,0,351.012,272.9A222.635,222.635,0,0,0,472.97,312H456A8,8,0,0,1,449.14,308.116Zm-57.985,31.462-16,32a7.994,7.994,0,0,1-2.717,3.078L352,388.281V408a8,8,0,0,1-3.562,6.656l-23.816,15.877L292.8,454.4A8.006,8.006,0,0,1,288,456H264a8,8,0,0,1-7.92-6.869L249.062,400H240a8,8,0,0,1-5.657-2.343l-32-32a8.052,8.052,0,0,1-1-1.219l-16-24a8,8,0,0,1,0-8.876l16-24a8.052,8.052,0,0,1,1-1.219l16-16a7.986,7.986,0,0,1,2.079-1.5l32-16a8,8,0,0,1,8.016.5L282.422,288H304a8,8,0,0,1,4.438,1.344L330.422,304H368a8,8,0,0,1,6.656,3.562l16,24A8,8,0,0,1,391.155,339.578Z"/><path d="M414.392,97.608A222.334,222.334,0,0,0,290.926,34.7L294.7,49.8l19.833,6.611A8,8,0,0,1,320,64V78.111l4.053,8.1,17.417-5.8a8,8,0,0,1,8.187,1.932l16,16a8.018,8.018,0,0,1,1.933,3.127l6.952,20.857,13.036,6.518A8,8,0,0,1,392,136v47.015l6.489,25.956,42.826,7.138a8,8,0,0,1,6.53,9.46l-7.394,36.967L460.529,296h15.919A226.575,226.575,0,0,0,480,256,222.533,222.533,0,0,0,414.392,97.608Z"/></svg>
